<?xml version="1.0" standalone="no"?>
<!DOCTYPE svg PUBLIC "-//W3C//DTD SVG 20010904//EN"
 "https://www.w3.org/TR/2001/REC-SVG-20010904/DTD/svg10.dtd">
<svg version="1.0" xmlns="https://www.w3.org/2000/svg"
 width="270.000000pt" height="270.000000pt" viewBox="0 0 270.000000 270.000000"
 preserveAspectRatio="xMidYMid meet">
<metadata>
Created by potrace 1.11, written by Peter Selinger 2001-2013
</metadata>
<g transform="translate(0.000000,270.000000) scale(0.100000,-0.100000)"
fill="#000000" stroke="none">
<path d="M775 2579 c-38 -45 -74 -87 -80 -93 -5 -6 -23 -27 -40 -47 -69 -82
-132 -155 -155 -180 -49 -52 -84 -102 -87 -121 -4 -24 15 -60 28 -53 5 4 9 0
9 -8 0 -36 59 -26 80 14 6 11 16 16 22 13 7 -4 8 -3 4 4 -4 7 -2 12 4 12 6 0
9 4 5 9 -3 6 4 15 16 21 11 7 19 14 16 16 -4 4 11 23 84 104 19 21 32 27 48
23 15 -4 20 -11 16 -21 -4 -12 -3 -12 8 -3 11 9 17 8 27 -4 7 -8 21 -15 31
-15 11 0 19 -5 19 -11 0 -5 5 -7 10 -4 6 3 10 1 10 -4 0 -6 5 -11 11 -11 5 0
7 6 3 13 -4 6 2 4 13 -5 11 -10 32 -19 46 -20 15 -1 27 -6 27 -10 0 -4 9 -5
20 -3 11 2 27 -3 35 -11 8 -9 15 -11 15 -6 0 7 39 9 48 2 1 -2 10 -3 20 -4 9
-1 23 -5 30 -9 6 -5 12 -5 12 0 0 4 13 8 29 8 16 0 27 -3 26 -6 -7 -10 160 -5
167 6 5 6 8 5 8 -4 0 -11 3 -11 15 -1 9 8 15 8 15 2 0 -7 10 -8 28 -3 15 4 33
6 41 3 8 -2 11 -1 8 4 -3 5 6 9 19 9 13 0 24 -4 24 -9 0 -5 7 -3 15 4 8 6 19
9 25 5 5 -3 10 -2 10 2 0 5 18 8 39 8 22 0 37 4 34 9 -4 5 3 7 15 4 12 -4 22
-2 22 2 0 4 13 7 29 6 17 -1 28 2 25 6 -3 4 1 9 8 9 7 1 18 2 23 4 6 1 16 3
23 3 7 1 11 6 8 10 -3 4 9 7 25 6 17 -1 28 1 25 4 -4 3 11 11 31 18 29 10 40
10 52 1 12 -10 13 -9 7 2 -9 14 8 31 32 31 8 0 -58 -71 -145 -158 -191 -192
-268 -275 -333 -361 -14 -18 -34 -45 -45 -59 -12 -15 -32 -44 -45 -64 l-25
-38 -318 0 -317 0 -33 -67 c-17 -38 -36 -71 -42 -75 -6 -5 -5 -8 3 -8 6 0 12
-10 12 -21 0 -19 2 -20 17 -8 14 12 15 12 9 0 -7 -10 -2 -12 24 -6 24 5 31 4
25 -5 -5 -9 -2 -10 11 -3 14 7 457 10 484 4 3 -1 0 -5 -5 -9 -6 -4 -16 -19
-24 -34 -8 -15 -24 -38 -35 -50 -12 -12 -19 -25 -16 -28 3 -3 -128 -6 -290 -8
l-295 -2 -36 -70 c-26 -51 -33 -72 -25 -81 8 -9 8 -10 -1 -5 -9 5 -11 2 -7 -8
3 -8 12 -17 20 -20 9 -3 12 -1 9 4 -3 6 -1 10 4 10 6 0 11 -3 11 -7 0 -5 14
-8 30 -8 17 0 30 2 30 5 0 3 27 5 60 5 33 0 60 -4 60 -10 0 -5 5 -3 10 5 5 8
10 11 10 5 0 -11 72 -11 89 0 6 3 11 3 11 -2 0 -12 84 -10 92 2 5 7 8 7 8 0 0
-6 17 -9 40 -7 22 2 40 1 40 -2 0 -9 -174 -270 -182 -274 -5 -2 -8 -10 -8 -18
0 -8 -4 -14 -10 -14 -5 0 -10 -4 -10 -9 0 -6 -31 -55 -70 -111 -38 -56 -70
-105 -70 -111 0 -5 -4 -9 -8 -9 -4 0 -15 -12 -24 -27 -19 -32 -19 -32 -129
-173 -46 -58 -114 -140 -152 -184 -62 -70 -68 -82 -63 -109 4 -17 12 -35 19
-39 6 -4 8 -8 4 -8 -12 0 15 -25 36 -33 10 -4 16 -3 13 2 -3 5 1 12 10 15 10
4 13 2 9 -7 -4 -6 0 -4 8 6 16 20 32 23 21 5 -4 -8 0 -7 12 2 10 8 30 21 43
28 19 11 22 11 15 0 -6 -11 -5 -11 9 0 9 8 22 10 28 6 8 -4 9 -3 5 4 -4 7 -2
13 3 13 26 3 30 4 36 11 4 4 13 4 21 1 8 -3 14 0 14 6 0 6 11 11 24 11 14 0
28 5 31 11 4 6 13 8 21 5 8 -3 14 -1 14 5 0 6 5 7 10 4 6 -3 10 0 10 7 0 10 2
10 9 -1 6 -10 10 -10 16 -1 4 6 13 9 21 6 8 -3 14 -1 14 5 0 6 5 7 10 4 6 -3
10 0 10 7 0 8 3 9 8 3 9 -13 35 -18 27 -5 -4 6 6 10 24 10 43 0 44 0 59 12 8
8 12 7 12 -3 0 -9 3 -10 8 -3 4 6 17 10 30 9 12 -1 22 1 22 5 0 3 24 6 53 5
28 0 58 3 65 8 7 6 12 5 12 -2 0 -9 5 -9 22 0 17 9 23 9 26 0 2 -6 8 -9 13 -5
18 10 49 13 49 3 0 -6 8 -6 20 1 11 6 20 7 20 2 0 -12 43 -9 52 3 5 7 8 7 8 0
0 -5 28 -11 62 -13 35 -2 66 -8 70 -15 6 -9 8 -9 8 1 0 8 5 10 13 5 6 -4 23
-9 36 -11 14 -2 33 -8 44 -14 15 -7 18 -7 12 2 -5 9 -1 8 16 -1 13 -7 32 -12
42 -10 9 1 17 -2 17 -6 0 -5 10 -10 22 -10 13 -1 24 -7 26 -13 2 -5 8 -7 13
-4 6 3 17 0 26 -8 12 -9 15 -9 9 -1 -5 9 -2 11 8 7 9 -3 14 -10 11 -14 -3 -5
6 -7 20 -6 13 2 22 -1 19 -5 -3 -5 -2 -9 3 -10 26 -2 47 -9 52 -16 3 -4 15
-10 26 -11 11 -2 23 -9 27 -15 4 -7 8 -8 8 -3 0 5 10 1 22 -10 12 -10 18 -13
14 -6 -4 6 -3 12 3 12 5 0 11 -5 13 -12 3 -7 11 -9 24 -3 10 4 22 7 27 7 4 -1
6 4 5 10 -2 7 3 12 10 10 8 -1 11 2 7 8 -3 5 8 23 25 40 17 16 28 30 25 30 -3
0 8 13 25 30 17 16 28 30 24 30 -4 0 3 8 14 19 12 10 22 24 22 30 0 7 5 9 12
5 8 -5 9 -2 5 10 -4 9 -3 15 2 12 4 -3 17 4 27 17 19 21 19 21 -1 8 -11 -7 -2
3 20 24 22 20 33 34 25 29 -8 -4 4 11 27 33 23 23 39 44 36 46 -2 3 5 11 17
17 12 6 19 14 16 17 -2 3 7 16 21 29 14 13 20 24 14 24 -7 0 -10 4 -7 8 3 5
-3 18 -14 29 -10 12 -16 24 -12 28 4 4 3 6 -3 4 -5 -1 -18 1 -29 6 -20 9 -49
-18 -127 -115 -20 -25 -46 -55 -56 -67 l-20 -23 -54 23 c-30 12 -55 25 -57 30
-2 4 -12 7 -21 7 -10 0 -21 3 -25 7 -3 4 -12 8 -19 10 -7 1 -43 12 -82 23
-100 29 -152 35 -315 35 -126 0 -274 -10 -290 -20 -3 -1 -27 -6 -55 -9 -62 -9
-224 -49 -330 -83 -44 -13 -85 -26 -92 -27 -7 -1 -16 -5 -19 -9 -4 -4 -12 -7
-17 -7 -6 0 4 14 21 30 18 17 37 30 43 30 6 0 9 7 6 14 -4 11 -1 13 10 9 13
-5 15 -2 10 11 -4 9 -3 15 2 12 5 -3 11 1 15 9 3 8 13 15 21 15 10 0 13 5 9
12 -5 8 -2 9 9 5 9 -3 16 -3 15 1 -4 11 69 81 77 74 4 -4 5 0 3 8 -2 8 3 14
10 12 8 -1 11 2 8 7 -7 11 19 33 28 23 4 -4 6 -2 4 4 -2 6 17 30 42 55 25 24
43 48 42 53 -2 5 4 6 12 3 9 -4 15 -1 13 6 -1 7 5 10 13 9 8 -2 12 -1 8 3 -8
8 42 61 55 57 5 -1 6 2 2 8 -3 5 -1 10 4 10 6 0 11 6 11 14 0 7 13 23 30 36
16 12 28 25 26 29 -6 9 21 31 28 24 3 -4 6 3 6 14 0 12 7 24 16 27 8 3 12 10
9 16 -6 9 7 14 27 11 4 0 5 6 2 14 -4 8 -1 15 6 15 6 0 9 4 6 9 -3 5 1 11 9
15 8 3 15 12 15 21 0 8 5 15 11 15 5 0 7 5 3 12 -5 7 -2 9 9 5 11 -4 14 -2 11
7 -4 10 6 15 30 18 21 2 36 0 36 -7 0 -5 5 -3 10 5 5 8 10 10 10 4 0 -7 17 -8
50 -4 33 4 50 3 50 -4 0 -6 5 -4 10 4 5 8 10 10 10 4 0 -7 17 -8 50 -4 33 4
50 3 50 -4 0 -6 5 -4 10 4 5 8 10 11 10 5 0 -6 33 -10 80 -10 44 0 80 3 80 7
0 4 12 3 27 -3 19 -7 28 -6 33 2 6 8 9 7 13 -2 4 -11 6 -11 6 -1 1 9 6 10 20
3 14 -8 23 -5 42 16 13 14 17 22 10 18 -8 -5 -5 6 8 23 12 18 19 32 15 32 -4
0 1 7 12 16 10 8 12 12 4 8 -12 -6 -13 -5 -3 7 20 24 19 29 -11 44 -23 12 -79
15 -290 16 -143 0 -255 3 -248 6 6 2 10 9 6 14 -3 5 0 9 6 9 6 0 8 4 5 10 -3
5 -1 10 4 10 6 0 11 7 11 15 0 8 5 15 10 15 6 0 10 5 10 11 0 7 8 18 18 26 10
9 11 12 2 7 -8 -4 -11 -3 -7 1 12 14 37 15 37 2 0 -7 4 -6 9 2 8 13 12 13 27
0 11 -8 15 -9 10 -2 -5 9 4 12 34 10 22 -1 40 -6 40 -12 0 -5 4 -4 9 4 8 13
12 13 27 0 11 -8 15 -9 10 -2 -5 9 4 12 34 10 22 -1 40 -6 40 -12 0 -5 4 -4 9
4 8 13 12 13 27 0 11 -8 15 -9 10 -2 -5 9 4 12 34 10 22 -1 40 -6 40 -12 0 -5
4 -4 9 4 8 13 12 13 27 0 11 -8 15 -9 10 -2 -5 9 4 12 34 10 22 -1 40 -6 40
-12 0 -5 4 -4 9 4 5 8 16 11 25 8 9 -4 21 2 29 13 8 11 17 17 22 12 4 -4 5 1
2 11 -4 9 -2 17 3 17 6 0 10 7 10 15 0 8 4 15 9 15 9 0 21 30 25 63 2 9 -3 17
-11 17 -7 0 -13 5 -13 10 0 6 -90 10 -251 10 l-251 0 14 23 c8 12 21 33 29 47
8 13 19 29 26 35 7 5 13 17 15 25 2 8 10 21 18 28 13 12 13 13 0 7 -10 -4 -9
-2 3 8 9 8 17 19 17 26 0 6 5 11 11 11 5 0 7 5 4 10 -3 6 1 13 9 16 9 3 13 10
10 15 -3 5 0 9 5 9 6 0 11 7 11 15 0 8 5 15 10 15 6 0 10 7 10 15 0 9 7 18 15
21 8 4 13 10 10 14 -3 4 2 13 10 20 8 7 13 16 10 20 -3 4 2 13 10 20 8 7 15
19 15 27 0 8 5 11 10 8 6 -3 11 -1 11 4 1 6 2 16 3 21 0 6 6 14 11 18 6 4 16
19 24 34 8 15 18 25 22 22 4 -2 6 5 4 16 -2 12 1 20 9 20 8 0 17 11 20 25 4
14 11 23 16 20 5 -3 7 4 5 16 -4 18 -2 19 12 7 11 -8 14 -9 10 -1 -9 15 40 96
52 88 5 -3 7 4 4 14 -3 13 2 23 16 31 12 6 18 16 15 22 -5 8 -1 9 10 5 10 -4
15 -3 11 3 -6 9 41 81 58 88 4 2 7 10 7 18 0 8 5 14 10 14 6 0 10 7 10 16 0 8
5 12 11 8 6 -3 3 8 -6 25 -9 18 -31 39 -50 48 -32 15 -36 15 -92 -12 -126 -59
-306 -122 -408 -141 -22 -4 -47 -9 -55 -12 -8 -2 -94 -6 -190 -7 -143 -3 -192
0 -265 16 -113 24 -254 70 -353 116 -42 20 -81 38 -87 39 -5 2 -19 6 -30 9
-17 5 -34 -10 -90 -76z"/>
</g>
</svg>
